<svg width="1200" height="220" viewBox="0 0 1200 220" fill="none" xmlns="http://www.w3.org/2000/svg" role="img" aria-labelledby="title desc">
  <title id="title">WashList signal pipeline</title>
  <desc id="desc">Animated abstract waveform representing playlist scanning and duplicate matching.</desc>
  <rect width="1200" height="220" rx="28" fill="#0A0C10"/>
  <rect x="1" y="1" width="1198" height="218" rx="27" stroke="#B89CFF" stroke-opacity=".18"/>
  <g opacity=".28">
    <path d="M0 58C110 28 190 92 300 62C430 26 516 98 642 57C786 10 875 99 1002 59C1096 29 1155 42 1200 54" stroke="#B89CFF" stroke-width="2"/>
    <path d="M0 160C108 130 198 184 306 154C430 120 526 190 648 150C784 106 866 188 1000 152C1092 127 1158 136 1200 148" stroke="#6FE8FF" stroke-width="2"/>
  </g>
  <g transform="translate(78 88)">
    <rect x="0" y="0" width="178" height="44" rx="22" fill="#B89CFF" fill-opacity=".12" stroke="#B89CFF" stroke-opacity=".35"/>
    <circle cx="28" cy="22" r="5" fill="#B89CFF">
      <animate attributeName="opacity" values="1;.35;1" dur="1.6s" repeatCount="indefinite"/>
    </circle>
    <text x="48" y="27" fill="#F4F6F8" font-family="ui-monospace, SFMono-Regular, Menlo, monospace" font-size="14" letter-spacing="1.2">READ</text>
  </g>
  <g transform="translate(310 88)">
    <rect x="0" y="0" width="178" height="44" rx="22" fill="#B89CFF" fill-opacity=".12" stroke="#B89CFF" stroke-opacity=".35"/>
    <circle cx="28" cy="22" r="5" fill="#B89CFF">
      <animate attributeName="opacity" values=".35;1;.35" dur="1.6s" repeatCount="indefinite"/>
    </circle>
    <text x="48" y="27" fill="#F4F6F8" font-family="ui-monospace, SFMono-Regular, Menlo, monospace" font-size="14" letter-spacing="1.2">NORMALIZE</text>
  </g>
  <g transform="translate(542 88)">
    <rect x="0" y="0" width="178" height="44" rx="22" fill="#B89CFF" fill-opacity=".12" stroke="#B89CFF" stroke-opacity=".35"/>
    <circle cx="28" cy="22" r="5" fill="#B89CFF">
      <animate attributeName="opacity" values=".35;.65;1;.35" dur="1.6s" repeatCount="indefinite"/>
    </circle>
    <text x="48" y="27" fill="#F4F6F8" font-family="ui-monospace, SFMono-Regular, Menlo, monospace" font-size="14" letter-spacing="1.2">FINGERPRINT</text>
  </g>
  <g transform="translate(774 88)">
    <rect x="0" y="0" width="178" height="44" rx="22" fill="#B89CFF" fill-opacity=".12" stroke="#B89CFF" stroke-opacity=".35"/>
    <circle cx="28" cy="22" r="5" fill="#6FE8FF">
      <animate attributeName="opacity" values=".35;1;.35" dur="1.6s" repeatCount="indefinite"/>
    </circle>
    <text x="48" y="27" fill="#F4F6F8" font-family="ui-monospace, SFMono-Regular, Menlo, monospace" font-size="14" letter-spacing="1.2">MATCH</text>
  </g>
  <g transform="translate(1006 88)">
    <rect x="0" y="0" width="116" height="44" rx="22" fill="#6FE8FF" fill-opacity=".10" stroke="#6FE8FF" stroke-opacity=".32"/>
    <circle cx="28" cy="22" r="5" fill="#6FE8FF">
      <animate attributeName="opacity" values="1;.35;1" dur="1.6s" repeatCount="indefinite"/>
    </circle>
    <text x="48" y="27" fill="#F4F6F8" font-family="ui-monospace, SFMono-Regular, Menlo, monospace" font-size="14" letter-spacing="1.2">REVIEW</text>
  </g>
  <path d="M266 110H300" stroke="#B89CFF" stroke-opacity=".45"/>
  <path d="M498 110H532" stroke="#B89CFF" stroke-opacity=".45"/>
  <path d="M730 110H764" stroke="#B89CFF" stroke-opacity=".45"/>
  <path d="M962 110H996" stroke="#6FE8FF" stroke-opacity=".45"/>
</svg>
